<svg width="20" height="20" viewBox="0 0 20 20" fill="none" xmlns="http://www.w3.org/2000/svg">
<path d="M19.9992 0.0020197V9.96261C19.9992 12.2603 19.2253 14.3781 17.9225 16.0695C17.0878 17.1547 16.0342 18.0661 14.8287 18.735C14.7133 18.7996 14.5978 18.8603 14.4803 18.9209C13.1289 19.6039 11.6033 19.9919 9.98443 20C9.96822 20 9.95201 20 9.9358 20H9.73117C7.93203 20 6.24837 19.513 4.80176 18.6642C1.92881 16.9769 0 13.8608 0 10.294V9.77063C0 6.19379 1.92678 3.06558 4.80176 1.36405C4.98208 1.25695 5.16646 1.15591 5.35285 1.06093C6.66371 0.394059 8.14274 0.0141457 9.71091 0C9.73927 0 9.76764 0 9.79398 0H19.9992V0.0020197Z" fill="#7E9ACF"/>
<path d="M9.98503 0.0020197V20C9.96883 20 9.95262 20 9.93641 20H9.73178C7.93263 20 6.24898 19.513 4.80237 18.6642V1.36405C4.98269 1.25695 5.16706 1.15591 5.35346 1.06093C6.66432 0.394059 8.14334 0.0141457 9.71152 0C9.73988 0 9.76825 0 9.79458 0H9.98503V0.0020197Z" fill="#78C7CE"/>
<path d="M17.9217 16.0717C17.0869 17.1568 16.0334 18.0682 14.8279 18.7371C14.7124 18.8018 14.5969 18.8624 14.4794 18.923L9.98355 10.1244L5.354 1.06306C6.66487 0.396195 8.14389 0.0162819 9.71206 0.00213623L9.98355 0.531592L14.8279 10.0132L17.9217 16.0717Z" fill="#84CEBF"/>
<path d="M20 0.0020197V9.96261C20 12.2603 19.226 14.3781 17.9233 16.0695C17.0885 17.1547 16.035 18.0661 14.8295 18.735V0H20V0.0020197Z" fill="#78C7CE"/>
</svg>
