<svg width="20" height="20" viewBox="0 0 20 20" fill="none" xmlns="http://www.w3.org/2000/svg">
<g clip-path="url(#clip0_47_5002)">
<path fill-rule="evenodd" clip-rule="evenodd" d="M9.9 3.39991C10.4473 2.6714 11.3186 2.2002 12.3 2.2002C13.515 2.2002 14.5 3.18517 14.5 4.4002C14.5 4.76028 14.4135 5.10017 14.2601 5.4002H15.9C16.8941 5.4002 17.7 6.20608 17.7 7.2002V8.8002C17.7 9.72671 17 10.4897 16.1 10.5892V16.0002C16.1 16.9943 15.2941 17.8002 14.3 17.8002H5.50001C4.50589 17.8002 3.70001 16.9943 3.70001 16.0002V10.5892C2.80002 10.4897 2.10001 9.72671 2.10001 8.8002V7.2002C2.10001 6.20608 2.90589 5.4002 3.90001 5.4002H5.53989C5.38652 5.10017 5.30001 4.76028 5.30001 4.4002C5.30001 3.18517 6.28498 2.2002 7.50001 2.2002C8.48137 2.2002 9.35267 2.6714 9.9 3.39991ZM10.5 5.2002V5.4002H12.3C12.8523 5.4002 13.3 4.95248 13.3 4.4002C13.3 3.84791 12.8523 3.4002 12.3 3.4002C11.3059 3.4002 10.5 4.20608 10.5 5.2002ZM9.30001 6.6002H3.90001C3.56864 6.6002 3.30001 6.86882 3.30001 7.2002V8.8002C3.30001 9.13157 3.56864 9.4002 3.90001 9.4002H9.30001V6.6002ZM10.5 6.6002V9.4002H15.9C16.2314 9.4002 16.5 9.13157 16.5 8.8002V7.2002C16.5 6.86882 16.2314 6.6002 15.9 6.6002H10.5ZM7.50001 5.4002H9.30001V5.2002C9.30001 4.20608 8.49412 3.4002 7.50001 3.4002C6.94772 3.4002 6.50001 3.84791 6.50001 4.4002C6.50001 4.95248 6.94772 5.4002 7.50001 5.4002ZM10.5 10.6002H14.9V16.0002C14.9 16.3316 14.6314 16.6002 14.3 16.6002H10.5V10.6002ZM9.30001 10.6002V16.6002H5.50001C5.16864 16.6002 4.90001 16.3316 4.90001 16.0002V10.6002H9.30001Z" fill="#2B303B"/>
</g>
<defs>
<clipPath id="clip0_47_5002">
<rect width="16" height="16" fill="white" transform="translate(2 2)"/>
</clipPath>
</defs>
</svg>
